<?xml version="1.0" encoding="utf-8"?>
<!-- Generator: Adobe Illustrator 17.0.0, SVG Export Plug-In . SVG Version: 6.00 Build 0)  -->
<!DOCTYPE svg PUBLIC "-//W3C//DTD SVG 1.0//EN" "http://www.w3.org/TR/2001/REC-SVG-20010904/DTD/svg10.dtd">
<svg version="1.0" id="Isolation_Mode" xmlns="http://www.w3.org/2000/svg" xmlns:xlink="http://www.w3.org/1999/xlink" x="0px"
	 y="0px" width="273.01px" height="273.017px" viewBox="0 0 273.01 273.017" enable-background="new 0 0 273.01 273.017"
	 xml:space="preserve">
<rect x="0" y="0" fill="#F2F2F2" width="273.01" height="273.017"/>
<path fill="#CACACB" d="M195.394,126.232c-1.667-5.741-3.787-9.585-9.139-9.585c0,0-22.57,0-23.867,0c-1.343,0-3.38-0.099-4.86-1.58
	c-1.138-1.135-0.883-3.103-0.883-4.212c0-1.295,0-24.345,0-24.345c0-5.356-5.002-7.592-9.812-8.889c0,0-3.149-1.112-10.188-1.112
	c-13.832,0-19.912,4.231-21.549,5.867c-7.797,6.793-20.471,20.025-24.316,24.115c-3.152,3.317-6.125,6.451-7.509,7.976
	c-0.917,1.01-3.002,2.917-3.973,5.327c-1.041,2.587-2.79,7.792-2.79,16.851c0,7.039,1.113,10.928,1.113,10.928
	c1.85,5.875,3.53,9.073,8.886,9.075c0,0,23.292,0,24.586,0c1.204,0,2.733,0.549,3.89,1.612c1.162,1.069,1.664,2.872,1.664,4.076
	c0,1.203,0,23.92,0,23.92c0,5.354,4.076,7.706,9.444,9.003c0,0,4.259,1.25,10.555,1.25c6.297,0,10.416-1.112,10.416-1.112
	c5.743-1.665,9.585-3.787,9.585-9.141c0,0,0-22.068,0-23.365c0-1.343,0.046-3.652,1.343-5.001c1.301-1.349,3.383-1.244,4.77-1.244
	c1.623,0,23.497,0,23.497,0c5.99,0,7.703-4.072,9.003-9.442c0,0,1.247-4.26,1.247-10.559
	C196.503,130.352,195.394,126.232,195.394,126.232z M96.728,145.313l-9.89-8.144l9.89-8.144V145.313z M136.066,86.182l8.144,9.89
	h-16.289L136.066,86.182z M136.066,187.275l-8.146-9.89h16.289L136.066,187.275z M178.042,145.313v-16.288l9.89,8.144
	L178.042,145.313z"/>
</svg>
