<?xml version="1.0" encoding="utf-8"?>
<!-- Generator: Adobe Illustrator 17.0.0, SVG Export Plug-In . SVG Version: 6.00 Build 0)  -->
<!DOCTYPE svg PUBLIC "-//W3C//DTD SVG 1.1//EN" "http://www.w3.org/Graphics/SVG/1.1/DTD/svg11.dtd">
<svg version="1.0" id="Layer_1" xmlns="http://www.w3.org/2000/svg" xmlns:xlink="http://www.w3.org/1999/xlink" x="0px"
	 y="0px" width="60px" height="60px" viewBox="0 0 98 98" enable-background="new 0 0 98 98" xml:space="preserve">
  <rect fill="#46688f" stroke-width="null" stroke-dasharray="null" stroke-linejoin="null" stroke-linecap="null" x="0.000005" y="0" width="98" height="98" id="svg_2"/>
  <path fill-rule="evenodd" clip-rule="evenodd" fill="#ffffff" d="m48.442001,64.869995l3.107998,0c0,0 0.938999,-0.107994 1.419003,-0.647995c0.440998,-0.496002 0.426998,-1.427002 0.426998,-1.427002s-0.061001,-4.357998 1.874996,-5c1.909004,-0.632999 4.359009,4.212006 6.956009,6.074997c1.963997,1.409004 3.455994,1.101006 3.455994,1.101006l6.944,-0.101006c0,0 3.633003,-0.233994 1.910004,-3.218994c-0.140999,-0.244003 -1.003006,-2.208 -5.164001,-6.243c-4.355003,-4.223 -3.771004,-3.540001 1.473999,-10.845001c3.194,-4.449001 4.471001,-7.165001 4.071999,-8.327999c-0.379997,-1.108002 -2.729996,-0.815002 -2.729996,-0.815002l-7.819008,0.051003c0,0 -0.579994,-0.083 -1.009995,0.186001c-0.419998,0.262997 -0.690002,0.875999 -0.690002,0.875999s-1.237999,3.443001 -2.888,6.370998c-3.481995,6.178001 -4.873997,6.505001 -5.442997,6.121002c-1.324001,-0.894001 -0.993,-3.591003 -0.993,-5.508003c0,-5.987 0.868999,-8.482998 -1.692001,-9.129997c-0.849998,-0.214001 -1.475998,-0.356003 -3.648998,-0.379002c-2.790001,-0.029999 -5.151001,0.008999 -6.488003,0.693001c-0.889999,0.454998 -1.575996,1.468998 -1.157997,1.528c0.516998,0.071999 1.687,0.329998 2.306999,1.212002c0.800999,1.139 0.772999,3.696999 0.772999,3.696999s0.461002,7.048 -1.075001,7.923c-1.053997,0.599998 -2.5,-0.625 -5.604,-6.23c-1.59,-2.871002 -2.790997,-6.045002 -2.790997,-6.045002s-0.231003,-0.592999 -0.644001,-0.91c-0.501003,-0.384998 -1.201,-0.506001 -1.201,-0.506001l-7.43,0.051003c0,0 -1.114998,0.032997 -1.525002,0.538998c-0.364998,0.451 -0.028999,1.382999 -0.028999,1.382999s5.817001,14.220001 12.403999,21.387001c6.040001,6.570995 12.898003,6.139996 12.898003,6.139996l0,0l0,0z" id="svg_1"/>
</svg>
