<?xml version="1.0" encoding="utf-8"?>
<!DOCTYPE svg PUBLIC "-//W3C//DTD SVG 1.1//EN" "http://www.w3.org/Graphics/SVG/1.1/DTD/svg11.dtd">
<svg version="1.1" id="Layer_1" xmlns="http://www.w3.org/2000/svg" xmlns:xlink="http://www.w3.org/1999/xlink" x="0px" y="0px" width="14px" height="14px" viewBox="0 0 14 14">
<path fill="#1c79e1" d="M7.783,1.5c0.657,0,2.185,0.134,2.185,1.373c0,0.447-0.12,1.081-0.348,1.832l-0.1,0.474L9.92,5.32 c0,0.076-0.012,0.197-0.022,0.299L9.876,5.873C9.867,6.027,9.848,6.131,9.83,6.199L9.44,6.053L9.364,6.685 C9.275,7.429,9.002,7.558,8.73,7.626L8.351,7.72v0.391v0.447v0.5h0.5h0.216v0.635v0.409l0.401,0.081 c1.029,0.208,3.032,1.03,3.032,1.798V12.5H7.828H7.344H2.5v-0.519c0-0.785,2.137-1.619,3.048-1.801l0.402-0.081v-0.41V9.057h0.301 h0.5v-0.5v-0.41V7.722L6.332,7.653C6.045,7.607,5.749,7.558,5.644,6.685L5.568,6.053L5.179,6.199 C5.161,6.13,5.141,6.024,5.132,5.866L5.11,5.618c-0.01-0.103-0.021-0.225-0.022-0.3c0.014-0.005,0.031-0.01,0.053-0.015L5.59,5.188 L5.51,4.731C5.457,4.431,5.341,4.126,5.23,3.83C5.12,3.539,4.995,3.209,5,3.028C5.006,2.846,5.332,2.679,5.562,2.62l0.255-0.066 l0.09-0.247C6.023,1.985,6.198,1.5,7.783,1.5 M7.783,1C5.995,1,5.631,1.597,5.436,2.136C5.124,2.217,4.516,2.482,4.5,3.013 C4.486,3.508,4.914,4.232,5.017,4.818C4.473,4.957,4.581,5.234,4.633,5.904C4.68,6.66,4.945,6.756,5.075,6.756 c0.044,0,0.072-0.011,0.072-0.011c0.119,0.992,0.499,1.303,1.103,1.402v0.41H5.45v1.132C4.961,9.787,2,10.622,2,11.981 C2,12.64,2,12.901,2,13h5.344h0.484H13c0-0.099,0-0.36,0-1.019c0-1.347-2.891-2.179-3.433-2.288V8.557H8.851V8.111 c0.525-0.131,0.902-0.47,1.01-1.366c0,0,0.029,0.011,0.072,0.011c0.13,0,0.396-0.095,0.442-0.851 c0.048-0.622,0.144-0.906-0.277-1.054c0.172-0.566,0.369-1.354,0.369-1.977C10.468,1.774,9.571,1,7.783,1L7.783,1z" />
</svg>
