<?xml version="1.0" encoding="utf-8"?>
<!DOCTYPE svg PUBLIC "-//W3C//DTD SVG 1.1//EN" "http://www.w3.org/Graphics/SVG/1.1/DTD/svg11.dtd">
<svg width="14" height="14" xmlns="http://www.w3.org/2000/svg">
<g fill="#1c79e1" id="svg_1">
<path d="m7,1.5c3.033,0 5.5,2.467 5.5,5.5s-2.467,5.5 -5.5,5.5s-5.5,-2.467 -5.5,-5.5s2.467,-5.5 5.5,-5.5m0,-0.5c-3.314,0 -6,2.686 -6,6s2.686,6 6,6s6,-2.686 6,-6s-2.686,-6 -6,-6l0,0z" id="svg_2"/>
<path d="m7,4.5c1.378,0 2.5,1.122 2.5,2.5s-1.122,2.5 -2.5,2.5s-2.5,-1.122 -2.5,-2.5s1.122,-2.5 2.5,-2.5m0,-0.5c-1.657,0 -3,1.343 -3,3s1.343,3 3,3s3,-1.343 3,-3s-1.343,-3 -3,-3l0,0z" id="svg_3"/>
</g>
<g fill="none" stroke-width="0.5" stroke-miterlimit="10" id="svg_4" stroke="#1c79e1">
<line x1="7.00387" y1="1.41445" x2="7.00387" y2="3.26469" id="svg_5"/>
<line x1="7.00387" y1="10.66563" x2="7.00387" y2="12.51587" id="svg_6"/>
<line x1="12.55159" y1="6.96516" x2="10.70235" y2="6.96516" id="svg_8"/>
<line x1="3.30539" y1="6.96516" x2="1.45616" y2="6.96516" id="svg_9"/>
<line x1="10.92703" y1="3.03988" x2="9.6187" y2="4.34893" id="svg_10"/>
<line x1="4.38905" y1="9.5814" x2="3.08071" y2="10.89044" id="svg_11"/>
<line x1="10.92703" y1="10.89044" x2="9.6187" y2="9.5814" id="svg_12"/>
<line x1="4.38905" y1="4.34893" x2="3.08071" y2="3.03988" id="svg_13"/>
</g>
</svg>