<?xml version="1.0" encoding="utf-8"?>
<!DOCTYPE svg PUBLIC "-//W3C//DTD SVG 1.1//EN" "http://www.w3.org/Graphics/SVG/1.1/DTD/svg11.dtd">
<svg version="1.1" id="Layer_1" xmlns="http://www.w3.org/2000/svg" xmlns:xlink="http://www.w3.org/1999/xlink" x="0px" y="0px" width="14px" height="14px" viewBox="0 0 14 14" enable-background="new 0 0 14 14" xml:space="preserve">
<path fill="#1c79e1" d="M10.243,5.5c0.693,0,1.257,0.564,1.257,1.257l-0.005,4.485c0,0.694-0.564,1.258-1.257,1.258H3.757 c-0.693,0-1.257-0.564-1.257-1.257l0.005-4.485c0-0.694,0.564-1.258,1.257-1.258h0.237H10.243 M10.243,5H3.999H3.762 C2.796,5,2.005,5.791,2.005,6.758L2,11.242c0,0.967,0.791,1.758,1.757,1.758h6.481c0.966,0,1.757-0.791,1.757-1.758L12,6.758 C12,5.791,11.209,5,10.243,5L10.243,5z"/>
<path fill="#1c79e1" d="M7,1.5c1.204,0,2.5,0.782,2.5,2.5v1h-5V4C4.5,2.282,5.796,1.5,7,1.5 M7,1C5.5,1,4,2,4,4c0,0.5,0,1.5,0,1.5h6c0,0,0-1,0-1.5 C10,2,8.5,1,7,1L7,1z"/>
<circle fill="none" stroke="#1c79e1" stroke-width="0.5" stroke-linecap="round" stroke-linejoin="round" stroke-miterlimit="10" cx="7" cy="8.25" r="1"/>
<line fill="none" stroke="#1c79e1" stroke-width="0.5" stroke-linejoin="round" stroke-miterlimit="10" x1="7" y1="9.25" x2="7" y2="10.75"/>
</svg>
