<?xml version="1.0" encoding="utf-8"?>
<!DOCTYPE svg PUBLIC "-//W3C//DTD SVG 1.1//EN" "http://www.w3.org/Graphics/SVG/1.1/DTD/svg11.dtd">
<svg version="1.1" id="Layer_1" xmlns="http://www.w3.org/2000/svg" xmlns:xlink="http://www.w3.org/1999/xlink" x="0px" y="0px" width="14px" height="14px" viewBox="0 0 14 14">
<g fill="#ff0000">
<polygon points="9,1 8.5,1 8.5,2.188 9,2.188 9,1"/>
<polygon points="10,1 8.5,1 8.5,1.5 10,1.5 10,1"/>
<polygon points="10,1 9.5,1 9.5,2.5 10,2.5 10,1"/>
<path d="M5.75,7.75c-0.276,0-0.5,0.224-0.5,0.5s0.224,0.5,0.5,0.5s0.5-0.224,0.5-0.5S6.026,7.75,5.75,7.75L5.75,7.75z"/>
<path d="M7.5,7.75C7.224,7.75,7,7.974,7,8.25s0.224,0.5,0.5,0.5S8,8.526,8,8.25S7.776,7.75,7.5,7.75L7.5,7.75z"/>
<path d="M9.25,7.75c-0.276,0-0.5,0.224-0.5,0.5s0.224,0.5,0.5,0.5s0.5-0.224,0.5-0.5S9.526,7.75,9.25,7.75L9.25,7.75z"/>
<path d="M5.75,9.75c-0.276,0-0.5,0.224-0.5,0.5s0.224,0.5,0.5,0.5s0.5-0.224,0.5-0.5S6.026,9.75,5.75,9.75L5.75,9.75z"/>
<path d="M7.5,9.75c-0.276,0-0.5,0.224-0.5,0.5s0.224,0.5,0.5,0.5S8,10.526,8,10.25S7.776,9.75,7.5,9.75L7.5,9.75z"/>
<path d="M9.25,9.75c-0.276,0-0.5,0.224-0.5,0.5s0.224,0.5,0.5,0.5s0.5-0.224,0.5-0.5S9.526,9.75,9.25,9.75L9.25,9.75z"/>
<path d="M9,2.5c0.827,0,1.5,0.673,1.5,1.5v7c0,0.827-0.673,1.5-1.5,1.5H6c-0.827,0-1.5-0.673-1.5-1.5V4c0-0.827,0.673-1.5,1.5-1.5 H9 M9,2H6C4.9,2,4,2.9,4,4v7c0,1.1,0.9,2,2,2h3c1.1,0,2-0.9,2-2V4C11,2.9,10.1,2,9,2L9,2z"/>
<path fill="none" stroke="#ff0000" stroke-width="0.5" stroke-miterlimit="10" d="M9.5,5.5c0,0.55-0.45,1-1,1h-2 c-0.55,0-1-0.45-1-1v-1c0-0.55,0.45-1,1-1h2c0.55,0,1,0.45,1,1V5.5z"/>
</g>
</svg>
